<svg width="25" height="24" viewBox="0 0 25 24" fill="none" xmlns="http://www.w3.org/2000/svg">
<g clip-path="url(#clip0_147_573)">
<path d="M7.5 9.667C7.5 8.95967 7.78099 8.28131 8.28115 7.78115C8.78131 7.28099 9.45967 7 10.167 7H18.833C19.1832 7 19.53 7.06898 19.8536 7.20301C20.1772 7.33704 20.4712 7.53349 20.7189 7.78115C20.9665 8.0288 21.163 8.32281 21.297 8.64638C21.431 8.96996 21.5 9.31676 21.5 9.667V18.333C21.5 18.6832 21.431 19.03 21.297 19.3536C21.163 19.6772 20.9665 19.9712 20.7189 20.2189C20.4712 20.4665 20.1772 20.663 19.8536 20.797C19.53 20.931 19.1832 21 18.833 21H10.167C9.81676 21 9.46996 20.931 9.14638 20.797C8.82281 20.663 8.5288 20.4665 8.28115 20.2189C8.03349 19.9712 7.83704 19.6772 7.70301 19.3536C7.56898 19.03 7.5 18.6832 7.5 18.333V9.667Z" stroke="white" stroke-width="2" stroke-linecap="round" stroke-linejoin="round"/>
<path d="M4.512 16.737C4.20534 16.5622 3.95027 16.3095 3.77258 16.0045C3.59488 15.6995 3.50085 15.353 3.5 15V5C3.5 3.9 4.4 3 5.5 3H15.5C16.25 3 16.658 3.385 17 4" stroke="white" stroke-width="2" stroke-linecap="round" stroke-linejoin="round"/>
</g>
<defs>
<clipPath id="clip0_147_573">
<rect width="24" height="24" fill="white" transform="translate(0.5)"/>
</clipPath>
</defs>
</svg>
